# xmcd
#
# Track frame offsets: 
#        150
#        18329
#        41265
#        61272
#        81543
#        91964
#        111774
#        123971
#        142573
#        156659
#        177519
#        199104
#
# Disc length: 2901 seconds
#
# Revision: 5
# Processed by: cddbd v1.5.2PL0 Copyright (c) Steve Scherf et al.
# Submitted via: ExactAudioCopyFreeDBPlugin 1.0
#
DISCID=9a0b530c
DTITLE=Dominic Miller - Shapes
DYEAR=2003
DGENRE=Acoustic
TTITLE0=Mass in B minor [Qui tollis] - JS Bach
TTITLE1=Adagio in G Minor - TG Albinoni and R Giazotto
TTITLE2=Shape of My Heart (feat. Sting) - Sting and Miller
TTITLE3=Air on a G String (Orchestral Suite No.3) - JS Bach
TTITLE4=Presto (Violin Partia in G Minor) - JS Bach
TTITLE5=Ave Maria (feat. Sting and Placido Domingo) - F Schubert
TTITLE6=Nimrod (9th Variation) [From Enigma Variations] - Edward Elgar
TTITLE7=Gymnopedie No.1 - Erik Satie
TTITLE8=Misa Criolla [Kyrie] (feat. Placido Domingo) - Ariel Ramirez
TTITLE9=Mi Fe (feat. Alejandro Lerner) -JS Bach
TTITLE10=Prelude No.3 for Clavier (feat. Chris Botti) - JS Bach
TTITLE11=Moonlight Sonata (Piano Sonata No.14) - L. v. Beethoven
EXTD=
EXTT0=
EXTT1=
EXTT2=
EXTT3=
EXTT4=
EXTT5=
EXTT6=
EXTT7=
EXTT8=
EXTT9=
EXTT10=
EXTT11=
PLAYORDER=
